<svg version="1.2" xmlns="http://www.w3.org/2000/svg" viewBox="0 0 1581 366" width="1581" height="366">
	<title>holcim_logo_color-svg</title>
	<defs>
		<clipPath clipPathUnits="userSpaceOnUse" id="cp1">
			<path d="m0 0h1580.99v371.04h-1580.99z"/>
		</clipPath>
		<linearGradient id="g1" x1="-10.1" y1="260.7" x2="356.9" y2="104.9" gradientUnits="userSpaceOnUse">
			<stop offset="0" stop-color="#ffffff"/>
			<stop offset="0" stop-color="#ffffff"/>
			<stop offset="1" stop-color="#ffffff"/>
		</linearGradient>
	</defs>
	<style>
		.s0 { fill: #ffffff } 
		.s1 { fill: url(#g1) } 
	</style>
	<g id="Clip-Path" clip-path="url(#cp1)">
		<g id="Layer">
			<path id="Layer" fill-rule="evenodd" class="s0" d="m488.2 106.7v68.4h67.3v-68.4h50.9v182.7h-50.9v-69.4h-67.4v69.4h-50.9v-182.7zm162.3 91.9v-0.5c0-52.5 41.6-95.1 98.4-95.1 56.7 0 97.7 42 97.7 94.5v0.5c0 52.5-41.6 95-98.3 95-56.7 0.1-97.8-42-97.8-94.4zm144.1 0v-0.5c0-26.4-18.2-49.4-46.2-49.4-27.9 0-45.6 22.4-45.6 48.9v0.5c0 26.3 18.3 49.3 46.1 49.3 28 0 45.7-22.4 45.7-48.8zm98.5-91.9h51v138.4h84.2v44.3h-135.2zm160.8 91.9v-0.5c0-53.2 41.2-95.1 96.9-95.1 37.6 0 61.8 15.7 78 38.2l-38.3 29.5c-10.5-13.1-22.6-21.4-40.2-21.4-25.7 0-43.8 21.6-43.8 48.3v0.5c0 27.4 18.1 48.8 43.8 48.8 19.2 0 30.5-8.9 41.5-22.2l38.4 27.1c-17.4 23.8-40.7 41.3-81.4 41.3-52.6 0-94.9-39.9-94.9-94.5zm222-91.9h51.2v182.8h-51.2zm157.8 0l46.7 70.8 46.7-70.8h53.9v182.7h-50.7v-106.9l-49.9 71.6h-1.1l-49.6-71v106.3h-49.9v-182.7z"/>
			<path id="Layer" class="s1" d="m347.8 105.6c0 48.2-32.2 88.8-76.1 101.7v-131.2h-59.8v80.8h-76v-35.6c0-18.3 1.6-31.5 4-41.9 11.2-48.1 53.1-79.4 101.9-79.4 59.5 0 106 46.2 106 105.6zm-347.8 154.2c0-48.1 32.2-88.7 76.1-101.6v131.2h59.8v-80.7h76v35.5c0 18.3-1.6 31.6-4 41.9-11.2 48.2-54 79.4-102.9 79.4-61.9 0-105-43.6-105-105.7z"/>
		</g>
	</g>
</svg>